<svg width="50" height="49" viewBox="0 0 50 49" fill="none" xmlns="http://www.w3.org/2000/svg">
<path d="M49.4198 35.0583C47.4761 34.6743 46.0107 36.0502 44.1756 34C43.696 33.4646 43.0034 33.7664 42.7837 34.4184C41.2086 39.0981 37.9322 36.8373 36.431 33.5595C36.1401 32.925 35.3166 32.98 35.0138 33.5595C33.9762 36.4493 31.9781 36.8052 29.0191 34.6272C28.5491 34.1592 27.7782 34.3166 27.6015 35.0532C26.3133 40.4253 21.8116 38.9494 20.4248 34.535C20.355 34.3127 20.2048 34.2048 20.0487 34.1855C19.7332 33.7359 19.0185 33.6012 18.7722 34.2317C16.9982 38.7715 13.7053 38.0766 11.6558 34.2378C11.2858 33.545 10.5221 33.7852 10.2795 34.4426C8.55587 39.1129 3.53353 39.0056 3.62297 33.3915C3.63278 32.7697 2.81515 32.6477 2.67688 33.2459C1.05912 40.2425 8.57922 41.4559 11.1842 36.32C13.8749 39.8032 17.9098 40.5181 19.834 35.8303C21.4757 40.9716 26.8385 41.9828 28.8318 36.8672C31.363 38.7923 33.7742 38.4899 35.6765 35.7547C37.9964 39.5256 42.1303 40.9148 43.9654 36.2617C45.6495 37.559 46.7668 36.6515 49.2035 36.8738C50.1129 36.9572 50.3207 35.2366 49.4198 35.0583Z" fill="#00B2A0"/>
<path d="M46.3749 42.5972C45.6125 44.0232 45.3489 45.3012 43.7158 45.9982C41.7055 46.8569 39.7045 44.8082 38.7139 43.1283C38.3721 42.5485 37.543 42.4371 37.2238 43.1283C35.8244 46.1584 32.7253 45.4185 31.4029 42.4942C31.0778 41.7748 29.9783 41.9032 29.8432 42.7262C29.1002 47.2593 25.7638 47.7391 23.5293 44.4535C23.7732 43.5688 22.501 42.9667 22.1541 43.8326C20.2784 48.5165 16.6164 47.9932 14.491 43.8132C14.1221 43.0878 13.2957 43.3422 13.0574 44.0266C11.33 48.9887 8.63957 46.6282 7.12982 43.2126C6.83578 42.547 5.99717 42.7776 5.8199 43.4075C4.99483 46.3412 3.63555 46.8889 1.34558 47.6479C0.914331 47.7911 0.980942 48.6431 1.45518 48.5712C4.079 48.173 5.51206 47.6415 6.58446 45.4169C8.78765 49.3337 11.8634 50.1338 13.9273 46.0124C16.6034 49.8262 20.9023 50.261 23.0322 45.7236C25.3981 49.3875 29.3658 49.2071 30.9547 45.2145C33.0045 47.9672 35.9879 48.3539 38.052 45.2734C41.1238 48.7896 47.4062 49.5766 47.6301 42.9851C47.658 42.199 46.7122 41.966 46.3749 42.5972Z" fill="#00B2A0"/>
<path d="M14.1106 7.35498C13.5963 7.52538 13.3935 7.96498 13.4092 8.40881C9.76498 9.02182 7.40574 13.1154 7.12417 17.2328C6.7391 22.8662 10.9422 26.1754 15.4993 25.7552C20.1589 25.3258 23.1901 20.5824 23.0531 15.4846C22.9162 10.3929 18.6794 5.8386 14.1106 7.35498ZM14.8693 23.1798C11.5247 23.4922 9.36107 20.9208 9.42502 17.2328C9.49216 13.3673 12.0937 10.8183 15.1095 9.7992C15.1647 9.78047 15.2045 9.74844 15.2493 9.72004C18.1892 10.2421 20.4126 11.5156 20.7249 15.484C21.0492 19.6005 18.3944 22.8499 14.8693 23.1798Z" fill="#00B2A0"/>
<path d="M9.86946 7.18457C9.32092 6.50508 8.71319 5.90808 8.09088 5.31893C7.47386 4.73461 6.81944 3.60405 5.94952 3.6965C5.48882 3.74545 5.17673 4.07809 5.14462 4.61286C5.08358 5.6277 5.96252 6.12622 6.60182 6.64376C7.33268 7.23502 8.09194 7.76405 8.77025 8.43628C9.52287 9.18254 10.5528 8.03083 9.86946 7.18457Z" fill="#00B2A0"/>
<path d="M4.82733 10.2408C5.11978 10.2809 4.8613 10.2326 4.78407 10.2051C4.66545 10.1625 4.54921 10.1114 4.43324 10.0607C4.30188 10.0036 4.17184 9.94195 4.04207 9.88031C4.03331 9.87608 4.02853 9.87397 4.01553 9.86732C3.89186 9.59692 3.67929 9.37908 3.40569 9.2815C2.91712 9.10656 2.17405 8.68872 1.64594 8.87755C1.34739 8.9845 1.03451 9.26579 0.976388 9.63982C0.976388 9.63982 0.976122 9.64133 0.976122 9.64193C0.920923 9.99633 0.944807 10.4574 1.22266 10.7039C1.37738 10.8405 1.55837 10.9372 1.74705 11.0205C1.59419 11.0199 1.7176 11.0281 1.85586 11.0647C1.95379 11.103 2.05038 11.1423 2.15123 11.1728C2.39432 11.2659 2.63714 11.3604 2.8789 11.4568C3.0177 11.5127 3.16074 11.5175 3.299 11.4891C3.79606 11.6396 4.34036 11.81 4.8276 11.7762C5.71344 11.7145 5.67549 10.3577 4.82733 10.2408Z" fill="#00B2A0"/>
<path d="M3.30909 18.8735C2.93703 19.2285 2.50286 19.5068 2.07985 19.7736C1.86117 19.9117 1.63507 20.0546 1.40074 20.1552C1.26035 20.2153 1.0369 20.1648 1.3458 20.2292C1.19241 20.1975 1.04698 20.1941 0.894388 20.1754C-0.391913 20.0174 -0.27488 22.6616 1.14305 22.2676C1.66532 22.1226 2.199 21.5552 2.64298 21.1918C3.15809 20.7703 3.6724 20.3096 4.09701 19.7706C4.58239 19.1548 3.85604 18.3512 3.30909 18.8735Z" fill="#00B2A0"/>
<path d="M6.58671 24.1139C6.15095 24.8752 5.75368 25.6644 5.33915 26.4406C4.88986 27.2814 4.12875 27.9083 4.02897 28.9144C3.96528 29.5567 4.58308 29.8749 5.03927 29.7906C5.97209 29.6184 6.42722 28.2666 6.76823 27.3911C7.12013 26.4877 7.33641 25.5402 7.61825 24.6085C7.8348 23.8909 6.92189 23.5278 6.58671 24.1139Z" fill="#00B2A0"/>
<path d="M15.4027 26.8506C15.3109 26.3131 14.5808 26.3388 14.4738 26.8506C14.1931 28.1959 13.8643 29.5298 13.5885 30.8764C13.5219 31.2015 13.5792 31.5777 13.8056 31.8115C13.7685 31.755 13.7727 31.7662 13.8181 31.8444C14.088 32.3466 14.6551 32.2892 14.9348 31.8444C14.6793 32.2505 15.1158 31.6478 15.1315 31.6169C15.2344 31.4166 15.2432 31.2064 15.2541 30.9816C15.2769 30.5163 15.3249 30.0522 15.3639 29.5885C15.4406 28.6842 15.5566 27.7506 15.4027 26.8506Z" fill="#00B2A0"/>
<path d="M25.0979 27.6454C24.4304 26.5553 23.3705 25.8556 22.7638 24.7298C22.3485 23.9588 21.3974 24.6304 21.7182 25.4256C21.9964 26.1148 22.4212 26.687 22.8599 27.2511C23.0693 27.5203 23.2837 27.7832 23.4679 28.0756C23.7192 28.4747 23.8225 28.9231 24.3123 29.0007C24.5942 29.0454 24.9158 28.982 25.0581 28.6548C25.0713 28.6246 25.0846 28.5944 25.0976 28.5638C25.2192 28.2853 25.2659 27.92 25.0979 27.6454Z" fill="#00B2A0"/>
<path d="M28.981 19.5122C27.8576 19.5796 26.734 19.6442 25.6107 19.708C24.5998 19.7654 24.5998 21.4362 25.6107 21.4939C26.7343 21.5579 27.8576 21.6226 28.981 21.6893C30.2145 21.7634 30.2145 19.4388 28.981 19.5122Z" fill="#00B2A0"/>
<path d="M28.9814 6.95685C27.9623 6.93268 27.1386 8.3261 26.5279 9.1355C25.8716 10.005 25.295 10.9474 24.6259 11.8054C24.1148 12.461 24.9027 13.3689 25.4725 12.7692C26.1471 12.0586 26.7596 11.2776 27.4071 10.5359C27.7728 10.1171 28.1513 9.69534 28.5663 9.33974C29.0766 8.90316 29.4776 8.76146 29.7045 8.03726C29.8731 7.49978 29.4394 6.96773 28.9814 6.95685Z" fill="#00B2A0"/>
<path d="M24.085 1.27034C23.4818 1.71084 23.0795 2.42628 22.665 3.08039C22.1817 3.84296 21.7223 4.60915 21.1634 5.30465C20.5305 6.0923 21.5151 7.22558 22.1947 6.47872C22.7223 5.89864 23.1894 5.26628 23.6471 4.61489C24.1386 3.91577 24.7724 3.27556 25.1768 2.51299C25.5828 1.748 24.7654 0.773642 24.085 1.27034Z" fill="#00B2A0"/>
<path d="M16.5488 0.222064C16.2548 -0.0740213 15.87 -0.0740213 15.5759 0.222064C14.9987 0.803358 15.2649 1.81821 15.3129 2.59196C15.3681 3.47961 15.4273 4.36635 15.4982 5.2528C15.5642 6.07942 16.5605 6.07942 16.6266 5.2528C16.6974 4.36605 16.7566 3.47991 16.8118 2.59196C16.8598 1.81851 17.126 0.803056 16.5488 0.222064Z" fill="#00B2A0"/>
</svg>
